<svg width="128" height="128" viewBox="0 0 128 128" xmlns="http://www.w3.org/2000/svg">
  <defs>
    <linearGradient id="bgA" x1="0" y1="0" x2="1" y2="1">
      <stop offset="0" stop-color="#6d5efc"/>
      <stop offset="1" stop-color="#4326c9"/>
    </linearGradient>
  </defs>
  <rect x="4" y="4" width="120" height="120" rx="26" fill="url(#bgA)"/>
  <!-- Classic Markdown mark (M + down arrow), centered -->
  <g fill="#ffffff">
    <path d="M22 86V42h13l16 20 16-20h13v44H73V61L51 86 29 61v25z"/>
    <path d="M96 86 78 64h11V42h14v22h11z"/>
  </g>
  <!-- Link chain badge, bottom-right -->
  <g transform="translate(83 83)">
    <circle cx="14" cy="14" r="18" fill="#22d3ee"/>
    <g fill="none" stroke="#0b3b46" stroke-width="3.2" stroke-linecap="round">
      <path d="M9 17a4.5 4.5 0 0 0 6.6.5l3-3a4.5 4.5 0 0 0-6.4-6.4l-1.5 1.5"/>
      <path d="M19 11a4.5 4.5 0 0 0-6.6-.5l-3 3a4.5 4.5 0 0 0 6.4 6.4l1.5-1.5"/>
    </g>
  </g>
</svg>
