<svg width="128" height="128" viewBox="0 0 128 128" xmlns="http://www.w3.org/2000/svg">
  <defs>
    <linearGradient id="bgC" x1="0" y1="0" x2="1" y2="1">
      <stop offset="0" stop-color="#fb7185"/>
      <stop offset="1" stop-color="#f97316"/>
    </linearGradient>
  </defs>
  <rect x="4" y="4" width="120" height="120" rx="26" fill="#0f172a"/>
  <!-- Hero chain link in a warm gradient -->
  <g fill="none" stroke="url(#bgC)" stroke-width="11" stroke-linecap="round">
    <path d="M50 58a14 14 0 0 0 20 1.5l9-9a14 14 0 0 0-19.8-19.8l-4.5 4.5"/>
    <path d="M78 50a14 14 0 0 0-20-1.5l-9 9a14 14 0 0 0 19.8 19.8l4.5-4.5"/>
  </g>
  <!-- Title text lines that the link resolves to -->
  <g fill="#ffffff">
    <rect x="34" y="92" width="60" height="8" rx="4"/>
    <rect x="34" y="106" width="40" height="8" rx="4" fill-opacity="0.6"/>
  </g>
</svg>
